<?xml version="1.0" encoding="UTF-8"?>
<svg id="Vrstva_1" data-name="Vrstva 1" xmlns="http://www.w3.org/2000/svg" viewBox="0 0 404.11 366.75">
  <defs>
    <style>
      .cls-1 {
        fill: #ed8599;
      }

      .cls-1, .cls-2, .cls-3, .cls-4, .cls-5 {
        stroke-miterlimit: 10;
      }

      .cls-1, .cls-3, .cls-5 {
        stroke: #1d1d1b;
      }

      .cls-6 {
        fill: #fff;
      }

      .cls-7, .cls-4 {
        opacity: .88;
      }

      .cls-8 {
        fill: #848484;
      }

      .cls-2, .cls-3, .cls-5 {
        fill: none;
      }

      .cls-2, .cls-4 {
        stroke: #000;
      }

      .cls-9 {
        fill: #5c5c5c;
      }

      .cls-4 {
        fill: #911913;
      }

      .cls-10 {
        fill: #2b2b2b;
      }

      .cls-5 {
        stroke-width: 2px;
      }
    </style>
  </defs>
  <path class="cls-4" d="m299.15,79.08c6.59-4.26,16.14-8.15,21.44-15.2,5.61-7.47,8.99-16.48,10.94-25.52,3.16-14.57-3.88-31.95-18.65-37.66-1.33,14.18.75,24.39-5.2,38.39-5.98,14.05-14.72,19.58-27.09,26.49"/>
  <path class="cls-4" d="m131.1,77.84c-6.59-4.26-14.88-6.91-20.18-13.96-5.61-7.47-8.99-16.48-10.94-25.52-3.16-14.57,3.88-31.95,18.65-37.66,1.33,14.18-.75,24.39,5.2,38.39s13.34,18.8,25.7,25.71"/>
  <g>
    <path class="cls-8" d="m214.41,47.33c71.23,0,128.97,57.74,128.97,128.97s-57.74,128.98-128.97,128.98-128.98-57.75-128.98-128.98S143.18,47.33,214.41,47.33Z"/>
    <path class="cls-3" d="m343.38,176.3c0,71.23-57.74,128.98-128.97,128.98s-128.98-57.75-128.98-128.98S143.18,47.33,214.41,47.33s128.97,57.74,128.97,128.97Z"/>
  </g>
  <g>
    <circle class="cls-10" cx="214.74" cy="178.31" r="116.32"/>
    <circle class="cls-3" cx="214.74" cy="178.31" r="116.32"/>
  </g>
  <circle class="cls-6" cx="152.1" cy="137.75" r="3.48"/>
  <path class="cls-6" d="m125.4,161.27c3.22,0,3.22-5,0-5s-3.22,5,0,5h0Z"/>
  <g>
    <path class="cls-9" d="m297.51,107.97c14.59,10.29,22.16,30,17.25,47.17s-30.75,33.88-48.55,32.48c-24.15-1.9-34.37-30.31-58.59-30.11-14.32.12-21.53,15.12-33.84,22.42-12.31,7.31-31.24,7.6-44.46,2.12-19.7-12.58-24.11-45.1-10.63-64.2,13.47-19.1,42.94-20.39,61.39-6.05,5.86,4.55,10.72,10.7,17.66,13.31,8.57,3.23,21.22,2.63,29.08-2.07,7.85-4.71,14.93-13.29,23.02-17.57,15.79-8.35,33.07-7.79,47.67,2.5Z"/>
    <path class="cls-3" d="m129.32,182.05c-19.7-12.58-24.11-45.1-10.63-64.2,13.47-19.1,42.94-20.39,61.39-6.05,5.86,4.55,10.72,10.7,17.66,13.31,8.57,3.23,21.22,2.63,29.08-2.07,7.85-4.71,14.93-13.29,23.02-17.57,15.79-8.35,33.07-7.79,47.67,2.5,14.59,10.29,22.16,30,17.25,47.17s-30.75,33.88-48.55,32.48c-24.15-1.9-34.37-30.31-58.59-30.11-14.32.12-21.53,15.12-33.84,22.42-12.31,7.31-31.24,7.6-44.46,2.12Z"/>
  </g>
  <g>
    <path d="m233.73,201.65c4.44,9.35,3.02,21.19-3.5,29.23-6.51,8.04-17.81,11.87-27.87,9.46-6.92-1.65-13.13-6.09-16.94-12.1-5.44-8.58-5.64-20.2-.49-28.95,5.15-8.76,13.68-14.87,23.82-14.29,10.35.04,20.54,7.3,24.98,16.65Z"/>
    <path class="cls-3" d="m208.75,185c-10.14-.58-18.67,5.53-23.82,14.29-5.15,8.75-4.95,20.37.49,28.95,3.81,6.01,10.02,10.45,16.94,12.1,10.06,2.41,21.36-1.42,27.87-9.46,6.52-8.04,7.94-19.88,3.5-29.23-4.44-9.35-14.63-16.61-24.98-16.65Z"/>
  </g>
  <g>
    <path d="m152.74,131.07c-7.77,0-14.07,6.3-14.07,14.07s6.3,14.08,14.07,14.08,14.08-6.31,14.08-14.08c0-.49-.02-.97-.07-1.44-2.05-1.09-3.94-2.45-5.48-3.9-2.43-2.3-3.22-5.11-4.03-7.99-1.41-.48-2.92-.74-4.5-.74Z"/>
    <g>
      <path class="cls-3" d="m157.24,131.81c-1.41-.48-2.92-.74-4.5-.74-7.77,0-14.07,6.3-14.07,14.07s6.3,14.08,14.07,14.08,14.08-6.31,14.08-14.08c0-.49-.02-.97-.07-1.44"/>
      <path class="cls-3" d="m166.75,143.69c-2.05-1.09-3.94-2.45-5.48-3.9-2.43-2.3-3.22-5.11-4.03-7.99"/>
    </g>
  </g>
  <circle class="cls-6" cx="153.76" cy="137.75" r="3.48"/>
  <g>
    <path d="m251,143.69c2.05-1.09,3.94-2.45,5.48-3.9,2.43-2.3,3.22-5.11,4.03-7.99,1.41-.48,2.92-.74,4.5-.74,7.77,0,14.07,6.3,14.07,14.07s-6.3,14.08-14.07,14.08-14.08-6.31-14.08-14.08c0-.49.02-.97.07-1.44Z"/>
    <g>
      <path class="cls-3" d="m260.51,131.81c1.41-.48,2.92-.74,4.5-.74,7.77,0,14.07,6.3,14.07,14.07s-6.3,14.08-14.07,14.08-14.08-6.31-14.08-14.08c0-.49.02-.97.07-1.44"/>
      <path class="cls-3" d="m251,143.69c2.05-1.09,3.94-2.45,5.48-3.9,2.43-2.3,3.22-5.11,4.03-7.99"/>
    </g>
  </g>
  <circle class="cls-6" cx="263.77" cy="137.75" r="3.48"/>
  <path class="cls-1" d="m225.45,233.92c.18,3.53-10.05,7.22-16.7,7.14-5.91-.07-16.02-3.42-17.39-6.88-1.57-3.93,10.82-8.91,17.39-8.91s16.49,4.43,16.7,8.66Z"/>
  <g class="cls-7">
    <path d="m179.8,259.77c4.13,10.04,6.85,26.42,3.61,36.98-4.4,14.31-16.88,14.42-28.29,18-7.52,2.37-6.16,4.78-3.79,12.85,1.41,4.79,4.43,14.32,2.19,19.53-4.22,9.76-26.18,14.65-35.74,12.06-12.55-3.41-26.15-22.69-30.21-34.73-10.21,10.42-16.21,17.54-31.61,18.66-13.89,1.01-25.76-.96-36.39-10.16-10.86-9.4-19.91-21.69-18.4-36.88,1.42-14.38,17.18-23.77,29.7-29.47,14.92-6.8,30.11-9.12,43.41-19.69,7.21-8.42,11.24-22.21,22.63-24.14,13.1-2.23,20.07,10.97,24.66,20.87,3.07,6.62,3.22,13.66,10.58,12.53,5.62-.86,11.41-5.53,17.64-6.56,12.91-2.15,24.12-4.17,30.01,10.15Z"/>
    <path class="cls-5" d="m74.28,246.92c7.21-8.42,11.24-22.21,22.63-24.14,13.1-2.23,20.07,10.97,24.66,20.87,3.07,6.62,3.22,13.66,10.58,12.53,5.62-.86,11.41-5.53,17.64-6.56,12.91-2.15,24.12-4.17,30.01,10.15,4.13,10.04,6.85,26.42,3.61,36.98-4.4,14.31-16.88,14.42-28.29,18-7.52,2.37-6.16,4.78-3.79,12.85,1.41,4.79,4.43,14.32,2.19,19.53-4.22,9.76-26.18,14.65-35.74,12.06-12.55-3.41-26.15-22.69-30.21-34.73-10.21,10.42-16.21,17.54-31.61,18.66-13.89,1.01-25.76-.96-36.39-10.16-10.86-9.4-19.91-21.69-18.4-36.88,1.42-14.38,17.18-23.77,29.7-29.47,14.92-6.8,30.11-9.12,43.41-19.69Z"/>
  </g>
  <g class="cls-7">
    <path d="m157.34,284.32c-.46.03-.88.04-1.31-.06-2.91-5.84,6.06-14.53,10.49-17.14s14.71-7.28,19.78-5.63c4.1,1.34,4.52,6.54,7.81,8.89,3.34,2.38,2.48.58,3.13-2.31,1.35-5.96,8.25-11.26,12.77-15,4.82-3.98,11.19-6.11,16.57-1.93,3.86,3.01,5.71,10.49,10.66,11.4,6.05,1.12,13.38-8.98,17.54-12.61,4.47-3.91,10.39-11.21,16.09-13.07,5.26-1.72,8.69,3.99,8.71,8.65.01,2.79-1.24,5.72-1.05,8.53.23,3.47.77,2.56,4.69,2.71,9.02.34,12.7,1.01,17.47,7.15,5.29,6.81,3.92,10.58,4.45,17.36.43,5.46-.33,23.5-4.45,27.76-2.23,2.3-7.41,3.89-9.93,6.36s-8.9,4.1-11.97,5.71c-4.87,2.55-6.11,1.37-9.96,5.65-4.97,5.52-.53,12.72.25,18.85,1.74,13.61-19.51,21.07-30.38,21.12-6.41.03-12.6.4-18.72-1.53-5.61-1.77-11-5.48-15.92-8.67-2.26-1.46-4.89-2.65-6.89-4.41-1.7,1.17-2.86,3.53-4.77,4.69s-4.53,1.26-6.55,1.74c-4.05.97-8.01,2.39-12.07,3.34-8.88,2.07-18.56,1.77-27-1.63-10.08-4.06-13.44-11.54-11.31-22.29s17.35-19.01,20.42-29.12c2.79-9.18-3.48-18.83-.26-27.57"/>
  </g>
  <g class="cls-7">
    <path d="m252.88,281.41c-5.87-10.94,2.49-32.42,11.88-39.23,12.16-8.82,27.69-.11,39.49,3.03,8.24-19.14,31.24-11.53,39.97,2,2.02,3.14,2,7.55,3.56,10.48,2.54,4.82,3.44,3.7,8.56,5.11,8.85,2.44,17.13,7.53,19.59,16.57,2.61,9.57,2.43,22.02,7.34,29.02,7.16,10.19,15.23,15.35,17.8,24.55,2.64,9.47,5.35,17.82-3.75,23.97-6.16,4.16-38.62,8.18-45.91,9.08-14.61,1.81-20.42-6.96-32.13-14.15-4.78-1.81-10.99-1.47-16.19-2.07-7.68-.9-21.44,3.3-27.56-1.03-6.65-4.68-10.13-6.28-11.27-14.82-.81-6.08-.57-12.19.04-18.31.66-6.64.3-12.11-1.98-18.61-2.26-6.45-6.44-10-9.44-15.58Z"/>
    <path class="cls-2" d="m319.28,351.83c-4.78-1.81-10.99-1.47-16.19-2.07-7.68-.9-21.44,3.3-27.56-1.03-6.65-4.68-10.13-6.28-11.27-14.82-.81-6.08-.57-12.19.04-18.31.66-6.64.3-12.11-1.98-18.61-2.26-6.45-6.44-10-9.44-15.58-5.87-10.94,2.49-32.42,11.88-39.23,12.16-8.82,27.69-.11,39.49,3.03,8.24-19.14,31.24-11.53,39.97,2,2.02,3.14,2,7.55,3.56,10.48,2.54,4.82,3.44,3.7,8.56,5.11,8.85,2.44,17.13,7.53,19.59,16.57,2.61,9.57,2.43,22.02,7.34,29.02,7.16,10.19,15.23,15.35,17.8,24.55,2.64,9.47,5.35,17.82-3.75,23.97-6.16,4.16-38.62,8.18-45.91,9.08-14.61,1.81-20.42-6.96-32.13-14.15Z"/>
  </g>
</svg>